<svg width="25" height="24" viewBox="0 0 25 24" fill="none" xmlns="http://www.w3.org/2000/svg">
<path d="M8.20524 20C9.33856 20 10.2565 19.0821 10.2565 17.9487H6.15399C6.15394 19.0821 7.07192 20 8.20524 20Z" fill="#CDD3D9"/>
<path d="M14.359 13.8462V8.71793C14.359 5.56409 12.6821 2.93332 9.74361 2.23587V1.53846C9.74361 0.687163 9.05644 0 8.20514 0C7.35385 0 6.66668 0.687163 6.66668 1.53846V2.23591C3.72822 2.93337 2.0513 5.56413 2.0513 8.71798V13.8462L0 15.8975V16.9231H16.4102V15.8975L14.359 13.8462Z" fill="#CDD3D9"/>
<path d="M23.9102 8.09588C23.9102 11.6263 21.0066 14.5 17.4102 14.5C13.8139 14.5 10.9102 11.6263 10.9102 8.09588C10.9102 4.56547 13.8139 1.69177 17.4102 1.69177C21.0066 1.69177 23.9102 4.56547 23.9102 8.09588Z" fill="#FD3D00" stroke="white"/>
<path d="M16.8802 10.51V4.83L17.2502 5.11L15.8702 5.84L15.5802 4.9L17.4502 3.9H17.9702V10.51H16.8802ZM15.7702 11V9.96H19.1102V11H15.7702Z" fill="white"/>
</svg>
