<svg width="24" height="31" viewBox="0 0 24 31" fill="none" xmlns="http://www.w3.org/2000/svg">
<path d="M19.875 0.00561523C20.4167 0.00561523 20.9531 0.112311 21.4536 0.319612C21.954 0.526913 22.4088 0.830758 22.7918 1.2138C23.1749 1.59684 23.4787 2.05158 23.686 2.55205C23.8933 3.05251 24 3.58891 24 4.13062V25.8806C24 26.4223 23.8933 26.9587 23.686 27.4592C23.4787 27.9597 23.1749 28.4144 22.7918 28.7974C22.4088 29.1805 21.954 29.4843 21.4536 29.6916C20.9531 29.8989 20.4167 30.0056 19.875 30.0056H4.125C3.58317 30.0056 3.04665 29.8989 2.54608 29.6915C2.04552 29.4841 1.59072 29.1801 1.20765 28.7969C0.824593 28.4137 0.520779 27.9588 0.313566 27.4581C0.106354 26.9575 -0.000196756 26.4209 2.72753e-07 25.8791V4.13062C2.72753e-07 3.0366 0.434597 1.98739 1.20818 1.2138C1.98177 0.440212 3.03098 0.00561523 4.125 0.00561523H4.5615V12.2561C4.5615 13.3781 5.7465 13.7771 6.54 13.3661L6.675 13.2836L9.8145 11.4881L13.0245 13.3331C13.6935 13.7951 14.916 13.4831 15.0495 12.4481L15.0615 12.2561V0.00561523H19.8765H19.875ZM12.8115 0.00561523V10.6196L10.38 9.22161C10.1915 9.13917 9.98719 9.09938 9.78156 9.10508C9.57593 9.11078 9.3741 9.16185 9.1905 9.25462L9.03 9.34912L6.8115 10.6181V0.00561523H12.8115Z" fill="#9F41AE"/>
</svg>
